<?xml version="1.0" encoding="UTF-8"?>
<svg id="Layer_1" data-name="Layer 1" xmlns="http://www.w3.org/2000/svg" version="1.1" viewBox="0 0 689.8 128.4">
  <defs>
    <style>
      .cls-1 {
        fill: #fff;
        stroke-width: 0px;
      }
    </style>
  </defs>
  <path class="cls-1" d="M110.6,3.3H21.2C12.4,3.3,5.2,10.4,5.2,19.3v89.4c0,8.9,7.2,16.1,16.1,16.1h89.4c8.9,0,16.1-7.2,16.1-16.1V19.3c0-8.9-7.2-16.1-16.1-16.1ZM65.9,106.6c0-23.5-19.1-42.6-42.6-42.6,23.5,0,42.6-19.1,42.6-42.6,0,23.5,19.1,42.6,42.6,42.6-23.5,0-42.6,19.1-42.6,42.6ZM177,91.9c-3.2,0-6.1-.6-8.7-1.6-2.6-1.1-4.9-2.7-6.7-4.8-1.9-2.1-3.3-4.6-4.3-7.6-1-3-1.5-6.3-1.5-10.1s.9-9.2,2.6-12.8c1.8-3.6,4.2-6.4,7.4-8.3,3.2-2,6.9-2.9,11.2-2.9s9.4,1.2,12.5,3.6c3.2,2.4,5.4,5.7,6.6,9.9l-5.8,1.2c-1-2.8-2.6-5-4.8-6.7-2.2-1.7-4.9-2.5-8.2-2.5-3.4,0-6.3.7-8.6,2.3-2.3,1.6-4,3.7-5.2,6.5s-1.7,6-1.8,9.7c0,3.7.5,6.9,1.7,9.7,1.2,2.8,2.9,5,5.2,6.5,2.3,1.6,5.2,2.4,8.6,2.4,3,0,5.5-.5,7.5-1.7,2-1.2,3.6-2.8,4.7-5,1.1-2.2,1.8-4.8,2-7.9h-9.8v-4.7h15.9c0,.4.1.9.1,1.5,0,.6,0,1,0,1.2,0,4.2-.8,8-2.4,11.3-1.6,3.3-3.9,5.9-7,7.9-3.1,1.9-6.9,2.9-11.4,2.9ZM231.8,65.5c-.1-1.2-.4-2.4-.9-3.5-1-2.3-2.6-4-4.9-5.1-2.3-1.1-5-1.7-8.1-1.7s-7.1.9-9.5,2.6c-2.4,1.7-4,4.1-4.8,7.2l5.4,1.6c.6-2.1,1.7-3.7,3.3-4.6,1.6-1,3.4-1.4,5.5-1.4,3.2,0,5.4.7,6.7,2.2,1.1,1.3,1.7,3.4,1.8,5.9-1.2.2-2.4.3-3.8.5-2.1.3-4.2.6-6.2.9s-3.9.7-5.5,1.2c-1.8.5-3.3,1.2-4.5,2.1-1.3.9-2.3,2-2.9,3.3-.7,1.3-1,2.9-1,4.7s.4,3.6,1.3,5.1,2.2,2.8,4,3.8c1.7.9,3.9,1.4,6.5,1.4s6.2-.7,8.5-2.1c1.8-1.1,3.1-2.7,4.3-4.5v5.7h5.1v-21.4c0-1.4,0-2.7-.2-3.9ZM225.7,79.1c-.3,1.4-.9,2.8-1.8,4-.9,1.2-2.1,2.2-3.6,2.9-1.5.7-3.3,1.1-5.3,1.1s-3-.3-4-.8c-1-.5-1.8-1.2-2.2-2.1-.5-.9-.7-1.8-.7-2.7s.3-2,.8-2.7c.5-.7,1.2-1.3,2-1.8s1.7-.9,2.6-1.2c1.3-.4,2.7-.7,4.3-.9,1.6-.3,3.3-.5,5.1-.7,1.2-.2,2.3-.3,3.5-.5,0,.6,0,1.2,0,1.9,0,1.3-.2,2.5-.5,3.6ZM249.2,60.9v16.6c0,1.4,0,2.6,0,3.6,0,1,.3,1.9.7,2.6.8,1.4,2,2.2,3.7,2.4,1.7.2,3.7.2,6.1-.2v4.9c-2.1.4-4.1.6-6.1.5-2,0-3.8-.5-5.4-1.2-1.6-.7-2.8-1.9-3.5-3.5s-1.1-2.8-1.1-4.2c0-1.4,0-3,0-4.8v-16.9h-7v-4.7h7v-9.6h5.7v9.6h10.5v4.7h-10.5ZM286,84.9c-1.7,1-3.7,1.6-6,1.6-3.4,0-6-1.1-7.9-3.4-1.6-1.9-2.3-4.6-2.6-7.9h26.4c.2-4.1-.4-7.7-1.6-10.6-1.2-3-3.1-5.3-5.5-6.9-2.5-1.6-5.4-2.4-8.9-2.4s-6.3.8-8.8,2.3c-2.5,1.5-4.4,3.6-5.8,6.4-1.4,2.8-2.1,6.1-2.1,9.8s.7,6.8,2.1,9.5,3.4,4.8,5.9,6.3c2.5,1.5,5.5,2.3,8.9,2.3s6.4-.8,9.1-2.5c2.7-1.7,4.7-4,6.1-7.1l-5.5-1.9c-1,2-2.3,3.5-4,4.5ZM272.2,63.8c1.8-2.3,4.5-3.4,8.1-3.4s5.8,1.1,7.4,3.2c1.3,1.7,2.1,4,2.4,7h-20.5c.3-2.8,1.2-5.1,2.6-6.8ZM316.3,91.8c-4.1,0-7.5-.9-10.2-2.7-2.6-1.8-4.3-4.3-4.9-7.6l5.8-.9c.5,1.9,1.6,3.4,3.2,4.5,1.7,1.1,3.8,1.7,6.3,1.7s4.2-.5,5.6-1.5c1.4-1,2-2.3,2-4s-.2-1.7-.7-2.4c-.4-.6-1.4-1.2-2.8-1.7-1.4-.5-3.5-1.2-6.3-2-3.1-.8-5.5-1.7-7.2-2.5s-3-1.9-3.8-3c-.7-1.2-1.1-2.6-1.1-4.2s.6-3.8,1.7-5.3c1.1-1.5,2.7-2.7,4.7-3.5,2-.8,4.3-1.3,7-1.3s5,.4,7.1,1.2,3.8,2,5,3.5,2,3.3,2.3,5.3l-5.8,1.1c-.3-1.8-1.2-3.3-2.7-4.4-1.5-1.1-3.5-1.7-5.8-1.7-2.2,0-4.1.3-5.5,1.2s-2.1,2.1-2.1,3.5.3,1.6.8,2.2,1.5,1.2,2.9,1.7,3.5,1.1,6.2,1.8c3.1.8,5.5,1.6,7.2,2.5,1.8.9,3,2,3.8,3.2.7,1.2,1.1,2.7,1.1,4.5,0,3.3-1.2,6-3.7,7.9-2.5,1.9-5.9,2.9-10.2,2.9ZM337.9,90.9v-47.2h5.7v47.2h-5.7ZM380.8,65.5c-.1-1.2-.4-2.4-.9-3.5-1-2.3-2.6-4-4.9-5.1-2.3-1.1-5-1.7-8.1-1.7s-7.1.9-9.5,2.6c-2.4,1.7-4,4.1-4.8,7.2l5.4,1.6c.6-2.1,1.7-3.7,3.3-4.6,1.6-1,3.4-1.4,5.5-1.4,3.2,0,5.4.7,6.7,2.2,1.1,1.3,1.7,3.4,1.8,5.9-1.2.2-2.4.3-3.8.5-2.1.3-4.2.6-6.2.9s-3.9.7-5.5,1.2c-1.8.5-3.3,1.2-4.5,2.1-1.3.9-2.3,2-2.9,3.3-.7,1.3-1,2.9-1,4.7s.4,3.6,1.3,5.1,2.2,2.8,4,3.8c1.7.9,3.9,1.4,6.5,1.4s6.2-.7,8.5-2.1c1.8-1.1,3.1-2.7,4.3-4.5v5.7h5.1v-21.4c0-1.4,0-2.7-.2-3.9ZM374.8,79.1c-.3,1.4-.9,2.8-1.8,4-.9,1.2-2.1,2.2-3.6,2.9-1.5.7-3.3,1.1-5.3,1.1s-3-.3-4-.8c-1-.5-1.8-1.2-2.2-2.1-.5-.9-.7-1.8-.7-2.7s.3-2,.8-2.7c.5-.7,1.2-1.3,2-1.8s1.7-.9,2.6-1.2c1.3-.4,2.7-.7,4.3-.9,1.6-.3,3.3-.5,5.1-.7,1.2-.2,2.3-.3,3.5-.5,0,.6,0,1.2,0,1.9,0,1.3-.2,2.5-.5,3.6ZM419.8,71.7v19.2h-5.8v-17.4c0-1.6-.2-3.2-.4-4.7-.3-1.5-.8-2.9-1.5-4.1-.7-1.2-1.7-2.2-2.9-2.9s-2.7-1.1-4.6-1.1-2.7.2-3.9.7c-1.2.5-2.2,1.2-3,2.2-.8,1-1.5,2.2-1.9,3.7-.5,1.5-.7,3.2-.7,5.2v18.3h-5.8v-34.7h5.1v4.7c1.1-1.5,2.3-2.7,3.8-3.7,2.2-1.3,4.8-1.9,7.8-1.9s4.2.4,5.7,1.1c1.6.7,2.9,1.6,4,2.8,1,1.2,1.9,2.5,2.5,3.9s1,2.9,1.3,4.4c.2,1.5.4,2.9.4,4.2ZM451.7,44.7v14.9c-.6-.7-1.2-1.4-2-1.9-2.2-1.6-5-2.4-8.3-2.4s-6,.8-8.3,2.4-4.1,3.8-5.3,6.5c-1.3,2.8-1.9,5.9-1.9,9.3s.6,6.6,1.9,9.4c1.3,2.8,3,5,5.3,6.6s5.1,2.4,8.3,2.4,6-.8,8.2-2.4c1-.7,1.8-1.6,2.6-2.6v4h5.1v-46.2s-5.7,0-5.7,0ZM451.3,80.3c-.7,2-1.8,3.5-3.3,4.7-1.5,1.1-3.4,1.7-5.7,1.7s-4.2-.6-5.7-1.7c-1.5-1.2-2.6-2.7-3.4-4.7-.7-2-1.1-4.2-1.1-6.7s.4-4.6,1.1-6.6c.7-2,1.9-3.5,3.4-4.7,1.5-1.2,3.5-1.7,5.8-1.7s4.1.6,5.6,1.7c1.5,1.1,2.6,2.6,3.3,4.6s1.1,4.2,1.1,6.8-.4,4.8-1.1,6.8ZM512.8,75.3l5.8,1.5c-1.3,4.6-3.7,8.3-7.1,11-3.5,2.7-7.9,4.1-13.2,4.1s-8.5-1-11.7-3-5.7-4.9-7.3-8.5-2.5-7.8-2.5-12.6.8-8.9,2.5-12.6c1.7-3.6,4.1-6.4,7.3-8.5s7.1-3.1,11.7-3.1,9.8,1.4,13.2,4.1c3.5,2.7,5.8,6.4,7.1,11l-5.8,1.5c-.9-3.4-2.6-6.2-5.1-8.2-2.4-2-5.6-3-9.5-3s-6.3.8-8.6,2.3c-2.3,1.6-4,3.7-5.2,6.5s-1.7,6-1.8,9.7c0,3.7.5,6.9,1.7,9.7,1.2,2.8,2.9,5,5.2,6.6,2.3,1.6,5.2,2.4,8.6,2.4s7.1-1,9.5-3c2.4-2,4.1-4.7,5.1-8.1ZM553.3,65.5c-.1-1.2-.4-2.4-.9-3.5-1-2.3-2.6-4-4.9-5.1-2.3-1.1-5-1.7-8.1-1.7s-7.1.9-9.5,2.6c-2.4,1.7-4,4.1-4.9,7.2l5.4,1.6c.6-2.1,1.7-3.7,3.3-4.6,1.6-1,3.4-1.4,5.5-1.4,3.2,0,5.4.7,6.7,2.2,1.1,1.3,1.7,3.4,1.8,5.9-1.2.2-2.4.3-3.8.5-2.1.3-4.2.6-6.2.9s-3.9.7-5.5,1.2c-1.8.5-3.3,1.2-4.5,2.1-1.3.9-2.3,2-2.9,3.3-.7,1.3-1,2.9-1,4.7s.4,3.6,1.3,5.1,2.2,2.8,4,3.8c1.7.9,3.9,1.4,6.5,1.4s6.2-.7,8.5-2.1c1.8-1.1,3.1-2.7,4.3-4.5v5.7h5.1v-21.4c0-1.4,0-2.7-.2-3.9ZM547.2,79.1c-.3,1.4-.9,2.8-1.8,4-.9,1.2-2.1,2.2-3.6,2.9-1.5.7-3.3,1.1-5.3,1.1s-3-.3-4-.8c-1-.5-1.8-1.2-2.2-2.1-.5-.9-.7-1.8-.7-2.7s.3-2,.8-2.7,1.2-1.3,2-1.8c.8-.5,1.7-.9,2.6-1.2,1.3-.4,2.7-.7,4.3-.9,1.6-.3,3.3-.5,5.1-.7,1.1-.2,2.3-.3,3.5-.5,0,.6,0,1.2,0,1.9,0,1.3-.2,2.5-.5,3.6ZM591.4,64.2c-1.2-2.8-3-4.9-5.3-6.5s-5.1-2.4-8.3-2.4-6,.8-8.2,2.4c-1,.7-1.9,1.6-2.6,2.5v-4h-5.1v50.1h5.7v-18.8c.6.7,1.2,1.4,2,1.9,2.2,1.6,5,2.4,8.2,2.4s6-.8,8.3-2.4,4.1-3.8,5.3-6.6,1.9-5.9,1.9-9.4-.6-6.6-1.9-9.3ZM586.1,80.2c-.8,2-1.9,3.5-3.4,4.7-1.5,1.2-3.4,1.7-5.7,1.7s-4.3-.6-5.8-1.7-2.6-2.7-3.3-4.7c-.7-2-1.1-4.2-1.1-6.8s.4-4.8,1.1-6.8,1.8-3.5,3.3-4.6c1.5-1.1,3.3-1.7,5.6-1.7s4.3.6,5.8,1.7c1.5,1.2,2.7,2.7,3.4,4.7.7,2,1.1,4.2,1.1,6.6s-.4,4.7-1.1,6.7ZM601,56.2h5.7v34.7h-5.7v-34.7ZM606.7,44.2v5.9h-5.7v-5.9s5.7,0,5.7,0ZM625.2,60.9v16.6c0,1.4,0,2.6,0,3.6,0,1,.3,1.9.7,2.6.8,1.4,2,2.2,3.7,2.4,1.7.2,3.7.2,6.1-.2v4.9c-2.1.4-4.1.6-6.1.5s-3.8-.5-5.4-1.2c-1.6-.7-2.8-1.9-3.5-3.5-.7-1.4-1.1-2.8-1.1-4.2,0-1.4,0-3,0-4.8v-16.9h-7v-4.7h7v-9.6h5.7v9.6h10.5v4.7h-10.5ZM670.3,65.5c-.1-1.2-.4-2.4-.9-3.5-1-2.3-2.6-4-4.9-5.1-2.3-1.1-5-1.7-8.1-1.7s-7.1.9-9.5,2.6c-2.4,1.7-4,4.1-4.9,7.2l5.4,1.6c.6-2.1,1.7-3.7,3.3-4.6,1.6-1,3.4-1.4,5.5-1.4,3.2,0,5.4.7,6.7,2.2,1.1,1.3,1.7,3.4,1.8,5.9-1.2.2-2.4.3-3.8.5-2.1.3-4.2.6-6.2.9s-3.9.7-5.5,1.2c-1.8.5-3.3,1.2-4.5,2.1-1.3.9-2.3,2-2.9,3.3-.7,1.3-1,2.9-1,4.7s.4,3.6,1.3,5.1,2.2,2.8,4,3.8c1.7.9,3.9,1.4,6.5,1.4s6.2-.7,8.5-2.1c1.8-1.1,3.1-2.7,4.3-4.5v5.7h5.1v-21.4c0-1.4,0-2.7-.2-3.9ZM664.3,79.1c-.3,1.4-.9,2.8-1.8,4-.9,1.2-2.1,2.2-3.6,2.9-1.5.7-3.3,1.1-5.3,1.1s-3-.3-4-.8c-1-.5-1.8-1.2-2.2-2.1-.5-.9-.7-1.8-.7-2.7s.3-2,.8-2.7,1.2-1.3,2-1.8c.8-.5,1.7-.9,2.6-1.2,1.3-.4,2.7-.7,4.3-.9,1.6-.3,3.3-.5,5.1-.7,1.1-.2,2.3-.3,3.5-.5,0,.6,0,1.2,0,1.9,0,1.3-.2,2.5-.5,3.6ZM685.2,43.7v47.2h-5.7v-47.2s5.7,0,5.7,0Z"/>
</svg>