<?xml version="1.0" encoding="UTF-8"?>
<svg id="Layer_1" data-name="Layer 1" xmlns="http://www.w3.org/2000/svg" viewBox="0 0 112.4444444 20.8888889">
  <path d="M17.4181722,1.0385335H3.5000203c-1.3807373,0-2.5,1.1192627-2.5,2.5v13.9181519c0,1.3806763,1.1192627,2.5,2.5,2.5h13.9181519c1.3806763,0,2.5-1.1193237,2.5-2.5V3.5385335c0-1.3807373-1.1193237-2.5-2.5-2.5ZM10.4590658,17.1364339c0-3.6665039-2.97229-6.638855-6.638855-6.638855,3.6665649,0,6.638855-2.9723511,6.638855-6.638855,0,3.6665039,2.9723511,6.638855,6.638916,6.638855-3.6665649,0-6.638916,2.9723511-6.638916,6.638855ZM27.7664388,14.8352865c-.4936523,0-.9433594-.0859375-1.3500977-.2568359-.4067383-.171875-.7568359-.4199219-1.050293-.7451172-.2929688-.3251953-.519043-.7197266-.6772461-1.1826172-.1586914-.4628906-.237793-.9853516-.237793-1.5654297,0-.7666016.1367188-1.4296875.4101562-1.9892578.2734375-.5605469.6582031-.9931641,1.1552734-1.2978516.496582-.3046875,1.0795898-.4580078,1.75-.4580078.8066406,0,1.456543.1884766,1.949707.5654297s.8334961.8886719,1.0200195,1.5351562l-.8999023.1845703c-.1533203-.4326172-.4008789-.7792969-.7426758-1.0400391-.3417969-.2597656-.769043-.3916016-1.2822266-.3945312-.5371094-.0029297-.9824219.1162109-1.3378906.3603516-.3549805.2431641-.6220703.5830078-.8022461,1.0195312s-.2719727.9414062-.2749023,1.5146484c-.003418.5732422.0849609,1.0771484.2646484,1.5107422.1801758.4326172.4492188.7724609.8076172,1.0175781.3583984.2441406.8056641.3691406,1.3427734.3720703.4628906.0029297.8525391-.0849609,1.1674805-.2646484.3149414-.1806641.5600586-.4394531.7348633-.7783203.1748047-.3378906.2807617-.7470703.3173828-1.2275391h-1.5297852v-.734375h2.4697266c.0102539.0664062.0161133.1455078.0175781.2373047.0019531.0917969.0024414.1542969.0024414.1875,0,.6572266-.1225586,1.2441406-.3671875,1.7626953-.2451172.5185547-.6069336.9257812-1.0849609,1.2226562-.4785156.2958984-1.0693359.4443359-1.7724609.4443359ZM36.2864583,10.7327474c-.0200195-.1943359-.0683594-.375-.1450195-.5419922-.1533203-.3535156-.4057617-.6171875-.7578125-.7929688-.3515625-.1748047-.7724609-.2617188-1.262207-.2617188-.6098633,0-1.1015625.1347656-1.4750977.4042969-.3735352.2705078-.625.6416016-.7548828,1.1152344l.8447266.2548828c.1000977-.3300781.2724609-.5703125.5175781-.7197266.2451172-.1503906.5307617-.2255859.8574219-.2255859.4936523,0,.840332.1162109,1.0400391.3476562.1778564.2064819.2605591.5244141.2750244.9234619-.1915894.0263062-.3774414.0521851-.585083.0794678-.3266602.0429688-.6479492.0908203-.9648438.1425781s-.6035156.1123047-.8598633.1826172c-.2734375.0800781-.5092773.1894531-.7075195.3300781-.1982422.1396484-.3510742.3125-.4575195.5195312-.1069336.2070312-.1601562.4521484-.1601562.7353516,0,.2900391.0693359.5566406.2075195.7998047s.3432617.4394531.6152344.5878906c.2714844.1474609.6088867.2216797,1.012207.2216797.5200195,0,.9633789-.1103516,1.3300781-.3320312.2740479-.1656494.4871826-.4127808.6699219-.7001953v.8828125h.7900391v-3.3398438c0-.2138672-.0097656-.4179688-.0297852-.6132812ZM35.3411458,12.8460286c-.0429688.2226562-.1367188.4287109-.2797852.6171875-.1435547.1884766-.3325195.3398438-.5673828.4550781-.2353516.1152344-.5126953.171875-.8325195.171875-.2568359,0-.4643555-.0410156-.6225586-.125-.1582031-.0830078-.2749023-.1914062-.3500977-.3242188-.0751953-.1337891-.1123047-.2734375-.1123047-.4199219,0-.1669922.0390625-.3076172.1171875-.4228516.0786133-.1152344.1816406-.2099609.3100586-.2851562s.2661133-.1357422.4125977-.1826172c.2001953-.0566406.4243164-.1044922.6723633-.1445312.2485352-.0400391.5131836-.078125.7949219-.1152344.1791992-.0236206.3629761-.0504761.5455933-.076416-.001709.0857544-.0041504.1820679-.0079956.2961426-.0068359.2041016-.0332031.3886719-.0800781.5556641ZM39.0013021,10.0208333v2.5849609c0,.2197266.0024414.4082031.0073242.5644531.0053711.1572266.0395508.2919922.1025391.4052734.1201172.2138672.3110352.3388672.5727539.375.2617188.0371094.5776367.0263672.9472656-.0302734v.765625c-.3198242.0664062-.6357422.09375-.9472656.0820312-.3120117-.0117188-.5898438-.0751953-.8349609-.1894531-.2451172-.1152344-.4291992-.2958984-.5527344-.5429688-.1064453-.2128906-.1640625-.4287109-.1723633-.6474609-.0083008-.2177734-.0126953-.4658203-.0126953-.7421875v-2.625h-1.0947266v-.7353516h1.0947266v-1.5h.8901367v1.5h1.6298828v.7353516h-1.6298828ZM44.7366536,13.7454427c-.2636719.1630859-.5737305.2451172-.9301758.2451172-.5297852,0-.9384766-.1748047-1.2250977-.5253906-.2443237-.2980347-.3619995-.7227783-.3980103-1.2294922h4.1182251c.0263672-.6396484-.0561523-1.1914062-.2475586-1.6552734-.1918945-.4628906-.4785156-.8193359-.8598633-1.0693359-.3818359-.25-.8442383-.375-1.3876953-.375-.5234375,0-.9790039.1171875-1.3676758.3525391-.3881836.234375-.690918.5683594-.9072266,1-.2167969.4316406-.3251953.9423828-.3251953,1.5322266,0,.5634766.1098633,1.0556641.3300781,1.4775391s.5273438.75.9223633.984375c.3950195.2353516.8574219.3525391,1.3876953.3525391.5234375,0,.9956055-.1308594,1.4174805-.3925781.4213867-.2607422.7373047-.6298828.9472656-1.1074219l-.8549805-.2949219c-.1499023.3066406-.3564453.5419922-.6196289.7050781ZM42.5813802,10.4651693c.2866211-.3525391.7050781-.5292969,1.2548828-.5292969.5136719,0,.9003906.1640625,1.1601562.4921875.2051392.258667.3292847.6257935.3789673,1.0927734h-3.1968994c.0535278-.4382935.1876831-.7902222.4028931-1.0556641ZM49.4514974,14.8304036c-.6435547,0-1.1708984-.140625-1.5825195-.421875-.4121094-.2822266-.6645508-.6757812-.7578125-1.1826172l.9101562-.1455078c.0732422.2939453.2416992.5263672.5048828.6972656.2631836.171875.5898438.2578125.9799805.2578125.3666992,0,.6557617-.0761719.8676758-.2294922.2114258-.1533203.3173828-.3623047.3173828-.625,0-.1503906-.0351562-.2724609-.1049805-.3681641-.0698242-.0947266-.2143555-.1835938-.4326172-.2675781-.2182617-.0830078-.5473633-.1845703-.9873047-.3046875-.4765625-.1269531-.8515625-.2578125-1.125-.3925781s-.4682617-.2919922-.5849609-.4726562c-.1166992-.1796875-.175293-.3994141-.175293-.6601562,0-.3164062.0869141-.5927734.2602539-.8291016.1733398-.2373047.4155273-.4208984.7275391-.5527344.3115234-.1318359.6738281-.1972656,1.0874023-.1972656.4101562,0,.7768555.0644531,1.1000977.1943359s.5839844.3144531.7822266.5527344.315918.515625.3525391.8320312l-.909668.1650391c-.043457-.2861328-.1835938-.5136719-.4204102-.6816406-.2363281-.1689453-.5380859-.2578125-.9047852-.2675781-.3500977-.0107422-.6342773.0527344-.8525391.1894531s-.3276367.3203125-.3276367.5498047c0,.1337891.0410156.2460938.1225586.3378906s.2333984.1796875.4550781.2626953.5439453.1777344.9672852.2851562c.4770508.1201172.8525391.2509766,1.1279297.3925781.2749023.1416016.4707031.3076172.5874023.5.1166992.1914062.1748047.4267578.1748047.7070312,0,.5205078-.1914062.9296875-.574707,1.2275391-.3837891.2988281-.9121094.4472656-1.5849609.4472656ZM52.8157552,14.6858724v-7.3505859h.8901367v7.3505859h-.8901367ZM59.5008138,10.7327474c-.0200195-.1943359-.0683594-.375-.1450195-.5419922-.1533203-.3535156-.4057617-.6171875-.7578125-.7929688-.3515625-.1748047-.7724609-.2617188-1.262207-.2617188-.6098633,0-1.1015625.1347656-1.4750977.4042969-.3735352.2705078-.625.6416016-.7548828,1.1152344l.8447266.2548828c.1000977-.3300781.2724609-.5703125.5175781-.7197266.2451172-.1503906.5307617-.2255859.8574219-.2255859.4936523,0,.840332.1162109,1.0400391.3476562.1778564.2064819.2605591.5244141.2750244.9234619-.1915894.0263062-.3774414.0521851-.585083.0794678-.3266602.0429688-.6479492.0908203-.9648438.1425781s-.6035156.1123047-.8598633.1826172c-.2734375.0800781-.5092773.1894531-.7075195.3300781-.1982422.1396484-.3510742.3125-.4575195.5195312-.1069336.2070312-.1601562.4521484-.1601562.7353516,0,.2900391.0693359.5566406.2075195.7998047s.3432617.4394531.6152344.5878906c.2714844.1474609.6088867.2216797,1.012207.2216797.5200195,0,.9633789-.1103516,1.3300781-.3320312.2740479-.1656494.4871826-.4127808.6699219-.7001953v.8828125h.7900391v-3.3398438c0-.2138672-.0097656-.4179688-.0297852-.6132812ZM58.5555013,12.8460286c-.0429688.2226562-.1367188.4287109-.2797852.6171875-.1435547.1884766-.3325195.3398438-.5673828.4550781-.2353516.1152344-.5126953.171875-.8325195.171875-.2568359,0-.4643555-.0410156-.6225586-.125-.1582031-.0830078-.2749023-.1914062-.3500977-.3242188-.0751953-.1337891-.1123047-.2734375-.1123047-.4199219,0-.1669922.0390625-.3076172.1171875-.4228516.0786133-.1152344.1816406-.2099609.3100586-.2851562s.2661133-.1357422.4125977-.1826172c.2001953-.0566406.4243164-.1044922.6723633-.1445312.2485352-.0400391.5131836-.078125.7949219-.1152344.1791992-.0236206.3629761-.0504761.5455933-.076416-.001709.0857544-.0041504.1820679-.0079956.2961426-.0068359.2041016-.0332031.3886719-.0800781.5556641ZM65.5755208,11.7005208v2.9853516h-.8999023v-2.7050781c0-.2539062-.0234375-.4980469-.0698242-.7353516-.046875-.2363281-.125-.4501953-.2348633-.6396484-.1103516-.1904297-.2592773-.3398438-.4477539-.4501953s-.4257812-.1650391-.7124023-.1650391c-.2236328,0-.4257812.0380859-.6074219.1152344-.1816406.0761719-.3378906.1904297-.4677734.3427734-.1298828.1513672-.230957.3427734-.3022461.5742188-.0717773.2324219-.1074219.5048828-.1074219.8173828v2.8457031h-.9003906v-5.4003906h.800293v.7325439c.1642456-.2278442.352356-.4282227.5922852-.569458.3417969-.2021484.7441406-.3027344,1.2075195-.3027344.3500977,0,.6484375.0546875.8950195.1650391.246582.109375.4516602.2568359.6152344.4394531.1630859.1835938.2915039.3867188.3847656.6103516s.1591797.4521484.1977539.6845703c.0380859.2333984.0571289.4521484.0571289.6552734ZM70.5359701,7.4856771v2.321106c-.0982666-.1050415-.1923828-.2144775-.3100586-.298645-.3466797-.2480469-.7749023-.3720703-1.2851562-.3720703-.5,0-.9301758.1240234-1.2900391.3720703s-.637207.5878906-.8325195,1.0175781c-.1948242.4296875-.2924805.9150391-.2924805,1.4550781s.0976562,1.0253906.2924805,1.4570312c.1953125.4316406.4726562.7724609.8325195,1.0224609s.7915039.375,1.2949219.375c.5068359,0,.9335938-.1259766,1.2802734-.3769531.1554565-.1129761.2880859-.25.409668-.3987427v.6262817h.7954102v-7.2001953h-.8950195ZM70.468099,13.0335286c-.1113281.3076172-.2841797.5498047-.5170898.7246094-.2333984.1748047-.5317383.2626953-.8950195.2626953-.3535156,0-.6474609-.0898438-.8828125-.2705078-.2348633-.1796875-.4106445-.4238281-.5273438-.7324219-.1166992-.3076172-.1748047-.6542969-.1748047-1.0371094,0-.3798828.0571289-.7236328.1723633-1.0302734.1147461-.3066406.2915039-.5498047.5297852-.7294922.2382812-.1806641.5410156-.2705078.9077148-.2705078.3530273,0,.644043.0859375.8725586.2578125.2280273.171875.3989258.4111328.512207.7177734s.1699219.6582031.1699219,1.0546875c0,.3935547-.0556641.7441406-.1674805,1.0527344ZM80.0559896,12.2503255l.9042969.2402344c-.203125.7167969-.5742188,1.2871094-1.1123047,1.7099609-.5380859.4238281-1.2236328.6347656-2.0566406.6347656-.7167969,0-1.3251953-.1582031-1.8251953-.4746094s-.8813477-.7568359-1.1430664-1.3203125-.3925781-1.2148438-.3925781-1.9550781c0-.7392578.1308594-1.3916016.3925781-1.9550781.2617188-.5625.6430664-1.0029297,1.1430664-1.3193359s1.1083984-.4755859,1.8251953-.4755859c.8330078,0,1.5185547.2119141,2.0566406.6357422.5380859.4228516.9091797.9931641,1.1123047,1.7099609l-.9042969.2392578c-.1464844-.5361328-.4091797-.9599609-.7871094-1.2695312-.3789062-.3105469-.8710938-.4648438-1.4775391-.4648438-.5371094,0-.9833984.1210938-1.3408203.3652344-.3564453.2431641-.625.5830078-.8046875,1.0195312s-.2714844.9414062-.2744141,1.5146484c-.0039062.5732422.0849609,1.078125.2646484,1.5126953.1796875.4355469.4501953.7753906.8095703,1.0205078.3603516.2451172.8085938.3671875,1.3457031.3671875.6064453,0,1.0986328-.15625,1.4775391-.4677734.3779297-.3115234.640625-.734375.7871094-1.2675781ZM86.3557943,10.7327474c-.0205078-.1943359-.0683594-.375-.1455078-.5419922-.1533203-.3535156-.4052734-.6171875-.7568359-.7929688-.3515625-.1748047-.7724609-.2617188-1.2626953-.2617188-.6103516,0-1.1015625.1347656-1.4746094.4042969-.3740234.2705078-.625.6416016-.7558594,1.1152344l.8457031.2548828c.0996094-.3300781.2724609-.5703125.5175781-.7197266.2441406-.1503906.5302734-.2255859.8574219-.2255859.4931641,0,.8398438.1162109,1.0400391.3476562.1769409.2064819.2596436.5244751.2748413.9234009-.1915283.0262451-.3771973.0521851-.5853882.0795288-.3261719.0429688-.6484375.0908203-.9648438.1425781s-.6035156.1123047-.8603516.1826172c-.2734375.0800781-.5087891.1894531-.7070312.3300781-.1982422.1396484-.3505859.3125-.4580078.5195312-.1064453.2070312-.1591797.4521484-.1591797.7353516,0,.2900391.0683594.5566406.2070312.7998047s.34375.4394531.6152344.5878906c.2714844.1474609.609375.2216797,1.0126953.2216797.5195312,0,.9628906-.1103516,1.3300781-.3320312.2738647-.1657715.4871216-.413147.6699219-.7009277v.8835449h.7900391v-3.3398438c0-.2138672-.0107422-.4179688-.0302734-.6132812ZM85.4104818,12.8460286c-.0429688.2226562-.1367188.4287109-.2802734.6171875-.1425781.1884766-.3320312.3398438-.5673828.4550781-.234375.1152344-.5117188.171875-.8320312.171875-.2568359,0-.4638672-.0410156-.6230469-.125-.1582031-.0830078-.2744141-.1914062-.3496094-.3242188-.0751953-.1337891-.1123047-.2734375-.1123047-.4199219,0-.1669922.0390625-.3076172.1171875-.4228516s.1816406-.2099609.3105469-.2851562c.1279297-.0751953.265625-.1357422.4121094-.1826172.2001953-.0566406.4238281-.1044922.6728516-.1445312.2480469-.0400391.5126953-.078125.7949219-.1152344.1787109-.0235596.3624878-.0504761.5448608-.076355-.0015259.0857544-.0039062.1820068-.0077515.2960815-.0068359.2041016-.0332031.3886719-.0800781.5556641ZM92.2952474,10.5257161c-.1933594-.4296875-.4707031-.7695312-.8320312-1.0175781s-.7929688-.3720703-1.2929688-.3720703c-.5058594,0-.9335938.1240234-1.2822266.3720703-.1566162.1113892-.289978.2473145-.4121094.3952026v-.6178589h-.7949219v7.7998047h.8945312v-2.9290161c.0983887.1060791.192749.2164917.3105469.302063.3466797.2509766.7724609.3769531,1.2792969.3769531.5039062,0,.9365234-.125,1.2978516-.375s.6386719-.5908203.8320312-1.0224609.2900391-.9169922.2900391-1.4570312-.0966797-1.0253906-.2900391-1.4550781ZM91.4661458,13.0179036c-.1171875.3085938-.2929688.5527344-.5283203.7324219-.234375.1806641-.5292969.2705078-.8818359.2705078-.3632812,0-.6621094-.0878906-.8955078-.2626953s-.4052734-.4169922-.5175781-.7246094c-.1113281-.3085938-.1669922-.6591797-.1669922-1.0527344,0-.3964844.0566406-.7480469.1699219-1.0546875s.2851562-.5458984.5146484-.7177734c.2304688-.171875.5205078-.2578125.8701172-.2578125.3671875,0,.6679688.0898438.9052734.2705078.2363281.1796875.4130859.4228516.5302734.7294922.1162109.3066406.1748047.6503906.1748047,1.0302734,0,.3828125-.0585938.7294922-.1748047,1.0371094ZM93.7854818,9.2854818h.890625v5.4003906h-.890625v-5.4003906ZM94.6761068,7.4104818v.9199219h-.890625v-.9199219h.890625ZM97.5608724,10.0208333v2.5849609c0,.2197266.0029297.4082031.0078125.5644531.0048828.1572266.0390625.2919922.1025391.4052734.1201172.2138672.3105469.3388672.5722656.375.2617188.0371094.5771484.0263672.9472656-.0302734v.765625c-.3203125.0664062-.6357422.09375-.9472656.0820312s-.5898438-.0751953-.8349609-.1894531c-.2451172-.1152344-.4296875-.2958984-.5527344-.5429688-.1064453-.2128906-.1640625-.4287109-.1728516-.6474609-.0078125-.2177734-.0117188-.4658203-.0117188-.7421875v-2.625h-1.0957031v-.7353516h1.0957031v-1.5h.8896484v1.5h1.6298828v.7353516h-1.6298828ZM104.586263,10.7327474c-.0205078-.1943359-.0683594-.375-.1455078-.5419922-.1533203-.3535156-.4052734-.6171875-.7568359-.7929688-.3515625-.1748047-.7724609-.2617188-1.2626953-.2617188-.6103516,0-1.1015625.1347656-1.4746094.4042969-.3740234.2705078-.625.6416016-.7558594,1.1152344l.8457031.2548828c.0996094-.3300781.2724609-.5703125.5175781-.7197266.2441406-.1503906.5302734-.2255859.8574219-.2255859.4931641,0,.8398438.1162109,1.0400391.3476562.1769409.2064819.2596436.5244751.2748413.9234009-.1915283.0262451-.3771973.0521851-.5853882.0795288-.3261719.0429688-.6484375.0908203-.9648438.1425781s-.6035156.1123047-.8603516.1826172c-.2734375.0800781-.5087891.1894531-.7070312.3300781-.1982422.1396484-.3505859.3125-.4580078.5195312-.1064453.2070312-.1591797.4521484-.1591797.7353516,0,.2900391.0683594.5566406.2070312.7998047s.34375.4394531.6152344.5878906c.2714844.1474609.609375.2216797,1.0126953.2216797.5195312,0,.9628906-.1103516,1.3300781-.3320312.2738647-.1657715.4871216-.413147.6699219-.7009277v.8835449h.7900391v-3.3398438c0-.2138672-.0107422-.4179688-.0302734-.6132812ZM103.6409505,12.8460286c-.0429688.2226562-.1367188.4287109-.2802734.6171875-.1425781.1884766-.3320312.3398438-.5673828.4550781-.234375.1152344-.5117188.171875-.8320312.171875-.2568359,0-.4638672-.0410156-.6230469-.125-.1582031-.0830078-.2744141-.1914062-.3496094-.3242188-.0751953-.1337891-.1123047-.2734375-.1123047-.4199219,0-.1669922.0390625-.3076172.1171875-.4228516s.1816406-.2099609.3105469-.2851562c.1279297-.0751953.265625-.1357422.4121094-.1826172.2001953-.0566406.4238281-.1044922.6728516-.1445312.2480469-.0400391.5126953-.078125.7949219-.1152344.1787109-.0235596.3624878-.0504761.5448608-.076355-.0015259.0857544-.0039062.1820068-.0077515.2960815-.0068359.2041016-.0332031.3886719-.0800781.5556641ZM106.9065755,7.3352865v7.3505859h-.890625v-7.3505859h.890625Z" style="fill: #fff;"/>
</svg>